<svg id="Laag_1" data-name="Laag 1" xmlns="http://www.w3.org/2000/svg" viewBox="0 0 60 60"><defs><style>.cls-1{fill:#fff;stroke:#fff;stroke-miterlimit:10;stroke-width:2.13px;}.cls-2{fill:#c7133a;fill-rule:evenodd;}</style></defs><title>Tekengebied 1</title><circle class="cls-1" cx="30.17" cy="29.86" r="28.42"/><g id="bhA7oT"><path class="cls-2" d="M30.07,15.32c3,0,6,0,9,0,3.42,0,5.47,2,5.5,5.44q.09,9.17,0,18.34a5,5,0,0,1-5.39,5.35q-9.17.1-18.34,0c-3.4,0-5.38-2.11-5.4-5.55q-.05-9.07,0-18.14c0-3.4,2.08-5.41,5.49-5.45C24,15.28,27,15.32,30.07,15.32ZM18.33,27c0,3.77-.08,7.36,0,10.94a3.66,3.66,0,0,0,3.78,3.53q7.84.11,15.67,0a3.6,3.6,0,0,0,3.71-3.37c.14-3.64,0-7.29,0-11.06H38C38,34.36,35.37,38.15,30.15,38a10.48,10.48,0,0,1-5.53-2.07c-2.91-2.14-3.15-5.46-2.56-8.89Zm16.32,3a4.74,4.74,0,0,0-4.54-4.8A4.8,4.8,0,0,0,25.28,30a4.69,4.69,0,0,0,9.37.07Zm1.81-6.71H41V18.89H36.46Z"/></g></svg>