<svg id="Laag_1" data-name="Laag 1" xmlns="http://www.w3.org/2000/svg" viewBox="0 0 60 60"><defs><style>.cls-1{fill:#fff;stroke:#fff;stroke-miterlimit:10;stroke-width:2.13px;}.cls-2{fill:#c7133a;fill-rule:evenodd;}</style></defs><title>Tekengebied 1</title><circle class="cls-1" cx="30.15" cy="30.19" r="28.28"/><g id="VT7ru9"><path class="cls-2" d="M13.26,44.51l9.74-3-.13-.82a8.25,8.25,0,0,1-6.57-5.26l2.61-.29c-3-1.83-5.33-3.78-5.31-7.47l2.69.35c-2.66-3.12-3.52-6.22-1.77-10.08,4.31,4.55,9.27,7.57,15.76,8,.08-1,.14-1.8.23-2.63.55-5.2,6.13-8.67,10.66-6.19,2.51,1.38,4.55,1.83,7.27.6L46.2,21l2.65-.52c0,.27.14.51.09.54-2.92,2-3,5.11-3.58,8.21C42.72,44.28,25.95,52.1,13.26,44.51Z"/></g></svg>