<svg id="Laag_1" data-name="Laag 1" xmlns="http://www.w3.org/2000/svg" viewBox="0 0 80 80"><defs><style>.cls-1{fill:none;stroke:#611924;stroke-linecap:round;stroke-miterlimit:10;stroke-width:4px;}</style></defs><title>challenge_active</title><path class="cls-1" d="M62.19,9.28A4.26,4.26,0,0,0,57.93,5H24.2a4.26,4.26,0,0,0-4.25,4.25V36a16.83,16.83,0,0,0,2.33,7.81s7.67,11.73,18.82,11.73S59.87,43.83,59.87,43.83A16.91,16.91,0,0,0,62.19,36Z"/><path class="cls-1" d="M44.26,66.81c-2-.06-5.1-.07-7,0s-3.05-2.09-2.65-4.39L35,60.58c.41-2.3,1.24-4.37,1.85-4.59a55.29,55.29,0,0,1,6.32-.46c1.36,0,2.87,2.51,3.36,4.8l.44,2.1C47.43,64.72,46.23,66.87,44.26,66.81Z"/><path class="cls-1" d="M19.95,9.09H15.41a4.26,4.26,0,0,0-4.25,4.25v.79c0,2.34,0,6.17-.08,8.5,0,0-.17,9.43,8.78,9.43"/><path class="cls-1" d="M62,9.09h4.53a4.26,4.26,0,0,1,4.25,4.25v.79c0,2.34,0,6.17.08,8.5,0,0,.17,9.43-8.78,9.43"/><rect class="cls-1" x="18.15" y="67.25" width="44.03" height="7.42" rx="3.71" ry="3.71"/></svg>