<svg id="Laag_1" data-name="Laag 1" xmlns="http://www.w3.org/2000/svg" viewBox="0 0 80 80"><defs><style>.cls-1{fill:none;stroke:#611924;stroke-linecap:round;stroke-miterlimit:10;stroke-width:4px;}</style></defs><title>home_active</title><path class="cls-1" d="M60.49,26.57c1.09,1.11,2,.75,2-.81V11.67a2.84,2.84,0,0,0-2.83-2.83H53.16a2.84,2.84,0,0,0-2.83,2.83v1.72a8,8,0,0,0,2,4.86Z"/><path class="cls-1" d="M47.73,69.63a2.91,2.91,0,0,0,2.89,2.83H64a2.84,2.84,0,0,0,2.83-2.83v-34a7.89,7.89,0,0,0-2-4.84L41.91,7.85a2.84,2.84,0,0,0-4,0L15.34,30.39a7.88,7.88,0,0,0-2,4.84v34.4a2.84,2.84,0,0,0,2.83,2.83H29.11a2.84,2.84,0,0,0,2.83-2.83V56.38a2.84,2.84,0,0,1,2.83-2.83h9.81a2.91,2.91,0,0,1,2.89,2.83Z"/><line class="cls-1" x1="23.03" y1="22.7" x2="5.13" y2="40.59"/><line class="cls-1" x1="57.17" y1="23.05" x2="75.07" y2="40.94"/></svg>